<svg width="18" height="18" viewBox="0 0 18 18" fill="none" xmlns="http://www.w3.org/2000/svg">
<path d="M15.1875 2.8125H5.0625C4.76413 2.8125 4.47798 2.93103 4.267 3.142C4.05603 3.35298 3.9375 3.63913 3.9375 3.9375V5.0625H2.8125C2.51413 5.0625 2.22798 5.18103 2.017 5.392C1.80603 5.60298 1.6875 5.88913 1.6875 6.1875V14.0625C1.6875 14.3609 1.80603 14.647 2.017 14.858C2.22798 15.069 2.51413 15.1875 2.8125 15.1875H12.9375C13.2359 15.1875 13.522 15.069 13.733 14.858C13.944 14.647 14.0625 14.3609 14.0625 14.0625V12.9375H15.1875C15.4859 12.9375 15.772 12.819 15.983 12.608C16.194 12.397 16.3125 12.1109 16.3125 11.8125V3.9375C16.3125 3.63913 16.194 3.35298 15.983 3.142C15.772 2.93103 15.4859 2.8125 15.1875 2.8125ZM5.0625 3.9375H15.1875V8.34961L14.4795 7.64227C14.375 7.53777 14.251 7.45488 14.1144 7.39833C13.9779 7.34178 13.8316 7.31267 13.6839 7.31267C13.5361 7.31267 13.3898 7.34178 13.2533 7.39833C13.1168 7.45488 12.9928 7.53777 12.8883 7.64227L11.482 9.04852L8.38828 5.95477C8.17732 5.74395 7.89129 5.62552 7.59305 5.62552C7.29481 5.62552 7.00877 5.74395 6.79781 5.95477L5.0625 7.69008V3.9375ZM12.9375 14.0625H2.8125V6.1875H3.9375V11.8125C3.9375 12.1109 4.05603 12.397 4.267 12.608C4.47798 12.819 4.76413 12.9375 5.0625 12.9375H12.9375V14.0625ZM15.1875 11.8125H5.0625V9.28125L7.59375 6.75L11.0855 10.2417C11.1909 10.3471 11.334 10.4063 11.4831 10.4063C11.6322 10.4063 11.7752 10.3471 11.8807 10.2417L13.6849 8.4375L15.1875 9.94078V11.8125ZM11.25 5.90625C11.25 5.73937 11.2995 5.57624 11.3922 5.43749C11.4849 5.29873 11.6167 5.19059 11.7709 5.12673C11.925 5.06287 12.0947 5.04616 12.2584 5.07871C12.422 5.11127 12.5724 5.19163 12.6904 5.30963C12.8084 5.42763 12.8887 5.57797 12.9213 5.74164C12.9538 5.90531 12.9371 6.07496 12.8733 6.22914C12.8094 6.38331 12.7013 6.51509 12.5625 6.6078C12.4238 6.70052 12.2606 6.75 12.0938 6.75C11.87 6.75 11.6554 6.66111 11.4971 6.50287C11.3389 6.34464 11.25 6.13003 11.25 5.90625Z" fill="#11112F"/>
</svg>
