<svg width="18" height="18" viewBox="0 0 18 18" fill="none" xmlns="http://www.w3.org/2000/svg">
<path d="M9.5625 15.1875C9.5625 15.3367 9.62176 15.4798 9.72725 15.5852C9.83274 15.6907 9.97582 15.75 10.125 15.75H14.625C14.7742 15.75 14.9173 15.6907 15.0227 15.5852C15.1282 15.4798 15.1875 15.3367 15.1875 15.1875V2.8125C15.1875 2.66332 15.1282 2.52024 15.0227 2.41475C14.9173 2.30926 14.7742 2.25 14.625 2.25H10.125C9.97582 2.25 9.83274 2.30926 9.72725 2.41475C9.62176 2.52024 9.5625 2.66332 9.5625 2.8125C9.5625 2.96168 9.62176 3.10476 9.72725 3.21025C9.83274 3.31574 9.97582 3.375 10.125 3.375H14.0625V14.625H10.125C9.97582 14.625 9.83274 14.6843 9.72725 14.7898C9.62176 14.8952 9.5625 15.0383 9.5625 15.1875ZM1.85203 8.60203L4.66453 5.78953C4.77008 5.68398 4.91323 5.62469 5.0625 5.62469C5.21177 5.62469 5.35492 5.68398 5.46047 5.78953C5.56602 5.89508 5.62531 6.03823 5.62531 6.1875C5.62531 6.33677 5.56602 6.47992 5.46047 6.58547L3.60773 8.4375H10.125C10.2742 8.4375 10.4173 8.49676 10.5227 8.60225C10.6282 8.70774 10.6875 8.85082 10.6875 9C10.6875 9.14918 10.6282 9.29226 10.5227 9.39775C10.4173 9.50324 10.2742 9.5625 10.125 9.5625H3.60773L5.46047 11.4145C5.56602 11.5201 5.62531 11.6632 5.62531 11.8125C5.62531 11.9618 5.56602 12.1049 5.46047 12.2105C5.35492 12.316 5.21177 12.3753 5.0625 12.3753C4.91323 12.3753 4.77008 12.316 4.66453 12.2105L1.85203 9.39797C1.79973 9.34573 1.75824 9.28369 1.72993 9.2154C1.70163 9.14712 1.68706 9.07392 1.68706 9C1.68706 8.92608 1.70163 8.85288 1.72993 8.7846C1.75824 8.71631 1.79973 8.65427 1.85203 8.60203Z" fill="#11112F"/>
</svg>
