<svg width="28" height="28" viewBox="0 0 28 28" fill="none" xmlns="http://www.w3.org/2000/svg">
<path d="M23.625 4.375H7.875C7.41087 4.375 6.96575 4.55937 6.63756 4.88756C6.30937 5.21575 6.125 5.66087 6.125 6.125V7.875H4.375C3.91087 7.875 3.46575 8.05937 3.13756 8.38756C2.80937 8.71575 2.625 9.16087 2.625 9.625V21.875C2.625 22.3391 2.80937 22.7842 3.13756 23.1124C3.46575 23.4406 3.91087 23.625 4.375 23.625H20.125C20.5891 23.625 21.0342 23.4406 21.3624 23.1124C21.6906 22.7842 21.875 22.3391 21.875 21.875V20.125H23.625C24.0891 20.125 24.5342 19.9406 24.8624 19.6124C25.1906 19.2842 25.375 18.8391 25.375 18.375V6.125C25.375 5.66087 25.1906 5.21575 24.8624 4.88756C24.5342 4.55937 24.0891 4.375 23.625 4.375ZM20.125 9.625V11.375H4.375V9.625H20.125ZM20.125 21.875H4.375V13.125H20.125V21.875ZM23.625 18.375H21.875V9.625C21.875 9.16087 21.6906 8.71575 21.3624 8.38756C21.0342 8.05937 20.5891 7.875 20.125 7.875H7.875V6.125H23.625V18.375Z" fill="#11112F"/>
</svg>
