<svg width="18" height="18" viewBox="0 0 18 18" fill="none" xmlns="http://www.w3.org/2000/svg">
<path d="M16.0397 10.2052L13.5 8.68148V7.3125C13.5009 7.21291 13.4753 7.11486 13.4259 7.02839C13.3765 6.94191 13.305 6.87011 13.2188 6.82031L9.5625 4.73625V3.375H10.6875C10.8367 3.375 10.9798 3.31574 11.0852 3.21025C11.1907 3.10476 11.25 2.96168 11.25 2.8125C11.25 2.66332 11.1907 2.52024 11.0852 2.41475C10.9798 2.30926 10.8367 2.25 10.6875 2.25H9.5625V1.125C9.5625 0.975816 9.50324 0.832742 9.39775 0.727252C9.29226 0.621763 9.14918 0.5625 9 0.5625C8.85082 0.5625 8.70774 0.621763 8.60225 0.727252C8.49676 0.832742 8.4375 0.975816 8.4375 1.125V2.25H7.3125C7.16332 2.25 7.02024 2.30926 6.91475 2.41475C6.80926 2.52024 6.75 2.66332 6.75 2.8125C6.75 2.96168 6.80926 3.10476 6.91475 3.21025C7.02024 3.31574 7.16332 3.375 7.3125 3.375H8.4375V4.73625L4.78125 6.82383C4.69499 6.87362 4.6235 6.94543 4.57409 7.0319C4.52468 7.11838 4.49911 7.21642 4.5 7.31602V8.685L1.96031 10.2052C1.87707 10.2552 1.8082 10.3259 1.76039 10.4104C1.71258 10.4949 1.68747 10.5904 1.6875 10.6875V15.1875C1.6875 15.3367 1.74676 15.4798 1.85225 15.5852C1.95774 15.6907 2.10082 15.75 2.25 15.75H7.875C8.02418 15.75 8.16726 15.6907 8.27275 15.5852C8.37824 15.4798 8.4375 15.3367 8.4375 15.1875V11.8125C8.4375 11.6633 8.49676 11.5202 8.60225 11.4148C8.70774 11.3093 8.85082 11.25 9 11.25C9.14918 11.25 9.29226 11.3093 9.39775 11.4148C9.50324 11.5202 9.5625 11.6633 9.5625 11.8125V15.1875C9.5625 15.3367 9.62176 15.4798 9.72725 15.5852C9.83274 15.6907 9.97582 15.75 10.125 15.75H15.75C15.8992 15.75 16.0423 15.6907 16.1477 15.5852C16.2532 15.4798 16.3125 15.3367 16.3125 15.1875V10.6875C16.3125 10.5904 16.2874 10.4949 16.2396 10.4104C16.1918 10.3259 16.1229 10.2552 16.0397 10.2052ZM2.8125 11.006L4.5 9.99352V14.625H2.8125V11.006ZM9 10.125C8.55245 10.125 8.12322 10.3028 7.80676 10.6193C7.49029 10.9357 7.3125 11.3649 7.3125 11.8125V14.625H5.625V7.63875L9 5.71008L12.375 7.63875V14.625H10.6875V11.8125C10.6875 11.3649 10.5097 10.9357 10.1932 10.6193C9.87678 10.3028 9.44755 10.125 9 10.125ZM15.1875 14.625H13.5V9.99352L15.1875 11.006V14.625Z" fill="#11112F"/>
</svg>
