<svg width="18" height="18" viewBox="0 0 18 18" fill="none" xmlns="http://www.w3.org/2000/svg">
<path d="M15.4878 11.1473C15.4076 11.0967 15.3159 11.0672 15.2212 11.0616C15.1266 11.0559 15.032 11.0743 14.9464 11.115C14.732 11.2164 14.4956 11.2619 14.2589 11.2473C14.0223 11.2328 13.7931 11.1586 13.5928 11.0318C13.3925 10.9049 13.2275 10.7295 13.1132 10.5218C12.9989 10.3141 12.9389 10.0808 12.9389 9.84373C12.9389 9.60663 12.9989 9.37338 13.1132 9.16567C13.2275 8.95795 13.3925 8.78252 13.5928 8.65567C13.7931 8.52882 14.0223 8.45467 14.2589 8.44013C14.4956 8.42559 14.732 8.47111 14.9464 8.57248C15.0321 8.61318 15.1268 8.63151 15.2215 8.62578C15.3163 8.62004 15.408 8.59043 15.4883 8.53969C15.5685 8.48895 15.6345 8.41873 15.6803 8.33558C15.7261 8.25243 15.7501 8.15904 15.7501 8.06412V5.06248C15.7501 4.76411 15.6315 4.47797 15.4205 4.26699C15.2096 4.05601 14.9234 3.93748 14.6251 3.93748H12.0783C12.0888 3.8441 12.094 3.7502 12.0938 3.65623C12.0933 3.31052 12.0222 2.96856 11.8848 2.6513C11.7475 2.33405 11.5468 2.04818 11.2951 1.81123C10.9465 1.48387 10.5123 1.26193 10.0428 1.17112C9.57336 1.08031 9.08775 1.12435 8.64226 1.29813C8.19677 1.47192 7.80961 1.76833 7.52563 2.15306C7.24164 2.53779 7.07245 2.99509 7.03763 3.47201C7.02683 3.62715 7.03012 3.78294 7.04747 3.93748H4.50005C4.20168 3.93748 3.91554 4.05601 3.70456 4.26699C3.49358 4.47797 3.37505 4.76411 3.37505 5.06248V7.32795C3.28167 7.31748 3.18777 7.31232 3.0938 7.31248C2.7481 7.31304 2.40615 7.38417 2.0889 7.52152C1.77165 7.65886 1.48578 7.85953 1.2488 8.11123C1.01013 8.36335 0.826343 8.66224 0.70907 8.98901C0.591797 9.31577 0.543582 9.66332 0.567475 10.0097C0.607784 10.6195 0.866919 11.1944 1.29723 11.6284C1.72754 12.0625 2.30008 12.3266 2.90958 12.3722C3.06471 12.3833 3.22054 12.38 3.37505 12.3623V14.625C3.37505 14.9234 3.49358 15.2095 3.70456 15.4205C3.91554 15.6315 4.20168 15.75 4.50005 15.75H14.6251C14.9234 15.75 15.2096 15.6315 15.4205 15.4205C15.6315 15.2095 15.7501 14.9234 15.7501 14.625V11.6233C15.7501 11.5283 15.7261 11.4348 15.6802 11.3516C15.6344 11.2683 15.5682 11.1981 15.4878 11.1473ZM14.6251 14.625H4.50005V11.6233C4.50008 11.5284 4.47609 11.435 4.43032 11.3519C4.38454 11.2687 4.31847 11.1985 4.23825 11.1478C4.15803 11.097 4.06628 11.0674 3.97154 11.0617C3.87679 11.056 3.78213 11.0743 3.69638 11.115C3.48204 11.2164 3.24556 11.2619 3.0089 11.2473C2.77225 11.2328 2.54312 11.1586 2.34281 11.0318C2.1425 10.9049 1.97751 10.7295 1.86319 10.5218C1.74886 10.3141 1.68891 10.0808 1.68891 9.84373C1.68891 9.60663 1.74886 9.37338 1.86319 9.16567C1.97751 8.95795 2.1425 8.78252 2.34281 8.65567C2.54312 8.52882 2.77225 8.45467 3.0089 8.44013C3.24556 8.42559 3.48204 8.47111 3.69638 8.57248C3.78213 8.61318 3.87679 8.63151 3.97154 8.62578C4.06628 8.62004 4.15803 8.59043 4.23825 8.53969C4.31847 8.48895 4.38454 8.41873 4.43032 8.33558C4.47609 8.25243 4.50008 8.15904 4.50005 8.06412V5.06248H7.78294C7.87786 5.06251 7.97125 5.03852 8.0544 4.99275C8.13755 4.94697 8.20777 4.8809 8.25851 4.80068C8.30925 4.72046 8.33887 4.62871 8.3446 4.53396C8.35033 4.43922 8.332 4.34456 8.2913 4.25881C8.18994 4.04447 8.14441 3.80799 8.15895 3.57133C8.17349 3.33468 8.24764 3.10555 8.37449 2.90524C8.50134 2.70493 8.67677 2.53994 8.88449 2.42562C9.09221 2.31129 9.32545 2.25134 9.56255 2.25134C9.79965 2.25134 10.0329 2.31129 10.2406 2.42562C10.4483 2.53994 10.6238 2.70493 10.7506 2.90524C10.8775 3.10555 10.9516 3.33468 10.9662 3.57133C10.9807 3.80799 10.9352 4.04447 10.8338 4.25881C10.7931 4.34456 10.7748 4.43922 10.7805 4.53396C10.7862 4.62871 10.8159 4.72046 10.8666 4.80068C10.9173 4.8809 10.9876 4.94697 11.0707 4.99275C11.1539 5.03852 11.2472 5.06251 11.3422 5.06248H14.6251V7.32865C14.4705 7.31095 14.3147 7.30766 14.1596 7.31881C13.5049 7.36517 12.8938 7.66399 12.4553 8.15225C12.0167 8.64051 11.7849 9.28003 11.8088 9.9359C11.8327 10.5918 12.1104 11.2127 12.5834 11.6678C13.0563 12.1228 13.6875 12.3764 14.3438 12.375C14.4378 12.3751 14.5317 12.37 14.6251 12.3595V14.625Z" fill="#11112F"/>
</svg>
