<svg width="18" height="18" viewBox="0 0 18 18" fill="none" xmlns="http://www.w3.org/2000/svg">
<path d="M17.2125 10.575C17.1534 10.6193 17.0861 10.6516 17.0146 10.6699C16.943 10.6882 16.8685 10.6923 16.7954 10.6819C16.7223 10.6714 16.6519 10.6467 16.5884 10.609C16.5248 10.5714 16.4693 10.5216 16.425 10.4625C16.0859 10.0068 15.6446 9.63703 15.1366 9.38301C14.6286 9.12899 14.068 8.9978 13.5 9C13.3894 8.99999 13.2812 8.96737 13.189 8.90622C13.0969 8.84506 13.0248 8.75809 12.9818 8.65618C12.9526 8.58697 12.9375 8.51262 12.9375 8.4375C12.9375 8.36239 12.9526 8.28804 12.9818 8.21883C13.0248 8.11692 13.0969 8.02995 13.189 7.96879C13.2812 7.90764 13.3894 7.87501 13.5 7.875C13.8156 7.87498 14.1249 7.78644 14.3927 7.61945C14.6605 7.45246 14.8761 7.21371 15.015 6.93031C15.154 6.64692 15.2106 6.33025 15.1786 6.01627C15.1466 5.70228 15.0271 5.40357 14.8339 5.15407C14.6406 4.90456 14.3812 4.71426 14.0852 4.60478C13.7892 4.4953 13.4684 4.47103 13.1593 4.53473C12.8501 4.59842 12.5651 4.74753 12.3365 4.96511C12.1078 5.1827 11.9448 5.46004 11.8659 5.76563C11.8474 5.83719 11.8151 5.90441 11.7706 5.96346C11.7262 6.0225 11.6705 6.07222 11.6069 6.10976C11.5432 6.1473 11.4728 6.17194 11.3996 6.18226C11.3264 6.19258 11.2519 6.18839 11.1804 6.16993C11.1088 6.15146 11.0416 6.11908 10.9825 6.07463C10.9235 6.03018 10.8738 5.97454 10.8362 5.91088C10.7987 5.84723 10.7741 5.7768 10.7637 5.70362C10.7534 5.63044 10.7576 5.55594 10.7761 5.48438C10.8856 5.06061 11.0925 4.66826 11.3803 4.33853C11.6682 4.0088 12.029 3.7508 12.4341 3.58506C12.8392 3.41932 13.2773 3.35041 13.7137 3.38381C14.1502 3.41722 14.5728 3.55202 14.9479 3.77748C15.323 4.00295 15.6404 4.31285 15.8747 4.68255C16.109 5.05224 16.2538 5.47152 16.2975 5.90701C16.3413 6.34251 16.2828 6.7822 16.1267 7.19111C15.9706 7.60002 15.7212 7.96685 15.3984 8.26243C16.1633 8.5936 16.8282 9.11912 17.3271 9.7868C17.3714 9.84605 17.4036 9.91345 17.4218 9.98516C17.4401 10.0569 17.444 10.1315 17.4333 10.2047C17.4227 10.2779 17.3977 10.3483 17.3598 10.4118C17.3219 10.4754 17.2718 10.5308 17.2125 10.575ZM13.424 14.9063C13.4647 14.9703 13.4921 15.0419 13.5044 15.1167C13.5167 15.1916 13.5137 15.2682 13.4957 15.3418C13.4776 15.4155 13.4449 15.4848 13.3993 15.5455C13.3538 15.6062 13.2965 15.6571 13.2308 15.695C13.1651 15.733 13.0925 15.7573 13.0172 15.7664C12.9418 15.7756 12.8655 15.7694 12.7926 15.7482C12.7197 15.7271 12.6519 15.6915 12.5932 15.6434C12.5345 15.5954 12.4861 15.536 12.4509 15.4688C12.0966 14.8688 11.5919 14.3715 10.9867 14.0261C10.3816 13.6807 9.69679 13.499 8.99997 13.499C8.30315 13.499 7.61837 13.6807 7.0132 14.0261C6.40803 14.3715 5.90337 14.8688 5.54903 15.4688C5.51387 15.536 5.46547 15.5954 5.40675 15.6434C5.34802 15.6915 5.28019 15.7271 5.20733 15.7482C5.13447 15.7694 5.05809 15.7756 4.98278 15.7664C4.90747 15.7573 4.83479 15.733 4.76911 15.695C4.70343 15.6571 4.64611 15.6062 4.60059 15.5455C4.55508 15.4848 4.52231 15.4155 4.50426 15.3418C4.48621 15.2682 4.48325 15.1916 4.49557 15.1167C4.50788 15.0419 4.53521 14.9703 4.57591 14.9063C5.12125 13.9693 5.95276 13.2319 6.94825 12.8025C6.38809 12.3736 5.97641 11.78 5.77108 11.105C5.56575 10.4301 5.57709 9.70776 5.8035 9.03959C6.02992 8.37142 6.46003 7.791 7.03338 7.37992C7.60672 6.96883 8.29448 6.74775 8.99997 6.74775C9.70546 6.74775 10.3932 6.96883 10.9666 7.37992C11.5399 7.791 11.97 8.37142 12.1964 9.03959C12.4229 9.70776 12.4342 10.4301 12.2289 11.105C12.0235 11.78 11.6118 12.3736 11.0517 12.8025C12.0472 13.2319 12.8787 13.9693 13.424 14.9063ZM8.99997 12.375C9.44498 12.375 9.87999 12.243 10.25 11.9958C10.62 11.7486 10.9084 11.3972 11.0787 10.986C11.249 10.5749 11.2936 10.1225 11.2067 9.68605C11.1199 9.24959 10.9056 8.84868 10.591 8.53401C10.2763 8.21935 9.87538 8.00505 9.43892 7.91824C9.00247 7.83142 8.55007 7.87598 8.13893 8.04627C7.7278 8.21657 7.3764 8.50496 7.12916 8.87497C6.88193 9.24498 6.74997 9.68 6.74997 10.125C6.74997 10.7217 6.98702 11.294 7.40898 11.716C7.83094 12.1379 8.40323 12.375 8.99997 12.375ZM5.06247 8.4375C5.06247 8.28832 5.00321 8.14525 4.89772 8.03976C4.79223 7.93427 4.64915 7.875 4.49997 7.875C4.18436 7.87498 3.87508 7.78644 3.60726 7.61945C3.33944 7.45246 3.12383 7.21371 2.9849 6.93031C2.84597 6.64692 2.7893 6.33025 2.82133 6.01627C2.85335 5.70228 2.97279 5.40357 3.16608 5.15407C3.35936 4.90456 3.61874 4.71426 3.91476 4.60478C4.21077 4.4953 4.53156 4.47103 4.84068 4.53473C5.1498 4.59842 5.43486 4.74753 5.66348 4.96511C5.89211 5.1827 6.05513 5.46004 6.13403 5.76563C6.17133 5.91015 6.26451 6.03394 6.39307 6.10976C6.52164 6.18558 6.67506 6.20722 6.81958 6.16993C6.9641 6.13263 7.08789 6.03945 7.16371 5.91088C7.23953 5.78232 7.26117 5.6289 7.22388 5.48438C7.11436 5.06061 6.90745 4.66826 6.61962 4.33853C6.33178 4.0088 5.97096 3.7508 5.56587 3.58506C5.16078 3.41932 4.7226 3.35041 4.28619 3.38381C3.84978 3.41722 3.42719 3.55202 3.05204 3.77748C2.6769 4.00295 2.35955 4.31285 2.12525 4.68255C1.89095 5.05224 1.74617 5.47152 1.70242 5.90701C1.65868 6.34251 1.71718 6.7822 1.87327 7.19111C2.02935 7.60002 2.27872 7.96685 2.60153 8.26243C1.83743 8.59391 1.17328 9.11941 0.674969 9.7868C0.585365 9.90615 0.546842 10.0562 0.567874 10.204C0.588906 10.3517 0.66777 10.485 0.787118 10.5747C0.906465 10.6643 1.05652 10.7028 1.20427 10.6817C1.35202 10.6607 1.48537 10.5819 1.57497 10.4625C1.91401 10.0068 2.35531 9.63703 2.86335 9.38301C3.37139 9.12899 3.93197 8.9978 4.49997 9C4.64915 9 4.79223 8.94074 4.89772 8.83525C5.00321 8.72976 5.06247 8.58669 5.06247 8.4375Z" fill="#11112F"/>
</svg>
