<svg width="18" height="18" viewBox="0 0 18 18" fill="none" xmlns="http://www.w3.org/2000/svg">
<path d="M15.023 7.14798L9.39798 12.773C9.34574 12.8253 9.2837 12.8668 9.21541 12.8951C9.14713 12.9234 9.07393 12.9379 9.00001 12.9379C8.92609 12.9379 8.85289 12.9234 8.7846 12.8951C8.71632 12.8668 8.65428 12.8253 8.60204 12.773L2.97704 7.14798C2.87149 7.04243 2.81219 6.89927 2.81219 6.75001C2.81219 6.60074 2.87149 6.45759 2.97704 6.35204C3.08259 6.24649 3.22574 6.18719 3.37501 6.18719C3.52427 6.18719 3.66743 6.24649 3.77298 6.35204L9.00001 11.5798L14.227 6.35204C14.2793 6.29978 14.3413 6.25832 14.4096 6.23004C14.4779 6.20175 14.5511 6.18719 14.625 6.18719C14.6989 6.18719 14.7721 6.20175 14.8404 6.23004C14.9087 6.25832 14.9707 6.29978 15.023 6.35204C15.0752 6.4043 15.1167 6.46634 15.145 6.53463C15.1733 6.60291 15.1878 6.6761 15.1878 6.75001C15.1878 6.82392 15.1733 6.8971 15.145 6.96539C15.1167 7.03367 15.0752 7.09571 15.023 7.14798Z" fill="#11112F"/>
</svg>
