<svg width="18" height="18" viewBox="0 0 18 18" fill="none" xmlns="http://www.w3.org/2000/svg">
<path d="M15.1875 2.8125H2.8125C2.51413 2.8125 2.22798 2.93103 2.017 3.142C1.80603 3.35298 1.6875 3.63913 1.6875 3.9375V14.0625C1.6875 14.3609 1.80603 14.647 2.017 14.858C2.22798 15.069 2.51413 15.1875 2.8125 15.1875H15.1875C15.4859 15.1875 15.772 15.069 15.983 14.858C16.194 14.647 16.3125 14.3609 16.3125 14.0625V3.9375C16.3125 3.63913 16.194 3.35298 15.983 3.142C15.772 2.93103 15.4859 2.8125 15.1875 2.8125ZM15.1875 14.0625H2.8125V3.9375H15.1875V14.0625ZM12.9375 6.75C12.9375 6.89918 12.8782 7.04226 12.7727 7.14775C12.6673 7.25324 12.5242 7.3125 12.375 7.3125H5.625C5.47582 7.3125 5.33274 7.25324 5.22725 7.14775C5.12176 7.04226 5.0625 6.89918 5.0625 6.75C5.0625 6.60082 5.12176 6.45774 5.22725 6.35225C5.33274 6.24676 5.47582 6.1875 5.625 6.1875H12.375C12.5242 6.1875 12.6673 6.24676 12.7727 6.35225C12.8782 6.45774 12.9375 6.60082 12.9375 6.75ZM12.9375 9C12.9375 9.14918 12.8782 9.29226 12.7727 9.39775C12.6673 9.50324 12.5242 9.5625 12.375 9.5625H5.625C5.47582 9.5625 5.33274 9.50324 5.22725 9.39775C5.12176 9.29226 5.0625 9.14918 5.0625 9C5.0625 8.85082 5.12176 8.70774 5.22725 8.60225C5.33274 8.49676 5.47582 8.4375 5.625 8.4375H12.375C12.5242 8.4375 12.6673 8.49676 12.7727 8.60225C12.8782 8.70774 12.9375 8.85082 12.9375 9ZM12.9375 11.25C12.9375 11.3992 12.8782 11.5423 12.7727 11.6477C12.6673 11.7532 12.5242 11.8125 12.375 11.8125H5.625C5.47582 11.8125 5.33274 11.7532 5.22725 11.6477C5.12176 11.5423 5.0625 11.3992 5.0625 11.25C5.0625 11.1008 5.12176 10.9577 5.22725 10.8523C5.33274 10.7468 5.47582 10.6875 5.625 10.6875H12.375C12.5242 10.6875 12.6673 10.7468 12.7727 10.8523C12.8782 10.9577 12.9375 11.1008 12.9375 11.25Z" fill="#11112F"/>
</svg>
