<svg width="18" height="18" viewBox="0 0 18 18" fill="none" xmlns="http://www.w3.org/2000/svg">
<path d="M9.00003 5.62497C8.33252 5.62497 7.68 5.82291 7.12498 6.19376C6.56997 6.56461 6.13738 7.09171 5.88194 7.70841C5.62649 8.32512 5.55966 9.00372 5.68988 9.6584C5.82011 10.3131 6.14154 10.9145 6.61355 11.3865C7.08555 11.8585 7.68692 12.1799 8.3416 12.3101C8.99629 12.4403 9.67489 12.3735 10.2916 12.1181C10.9083 11.8626 11.4354 11.43 11.8062 10.875C12.1771 10.32 12.375 9.66748 12.375 8.99997C12.3741 8.10515 12.0182 7.24725 11.3855 6.61451C10.7528 5.98178 9.89485 5.6259 9.00003 5.62497ZM9.00003 11.25C8.55502 11.25 8.12001 11.118 7.75 10.8708C7.37999 10.6235 7.0916 10.2721 6.9213 9.86101C6.75101 9.44987 6.70645 8.99748 6.79327 8.56102C6.88008 8.12456 7.09437 7.72365 7.40904 7.40898C7.72371 7.09431 8.12462 6.88002 8.56108 6.7932C8.99754 6.70639 9.44994 6.75094 9.86107 6.92124C10.2722 7.09154 10.6236 7.37993 10.8708 7.74994C11.1181 8.11995 11.25 8.55496 11.25 8.99997C11.25 9.59671 11.013 10.169 10.591 10.591C10.1691 11.0129 9.59677 11.25 9.00003 11.25ZM15.1875 9.15185C15.1903 9.0506 15.1903 8.94935 15.1875 8.8481L16.2366 7.53747C16.2916 7.46866 16.3297 7.38789 16.3478 7.30166C16.3658 7.21544 16.3634 7.12618 16.3407 7.04106C16.1687 6.39461 15.9114 5.77393 15.5757 5.19536C15.5317 5.11965 15.4707 5.05524 15.3974 5.00727C15.3242 4.9593 15.2408 4.92908 15.1538 4.91903L13.486 4.73341C13.4166 4.66028 13.3463 4.58997 13.275 4.52247L13.0782 2.85044C13.068 2.7634 13.0377 2.67993 12.9896 2.60669C12.9415 2.53344 12.877 2.47245 12.8011 2.42856C12.2223 2.09342 11.6017 1.83642 10.9554 1.66427C10.8703 1.64163 10.781 1.63931 10.6947 1.65751C10.6085 1.6757 10.5278 1.71391 10.459 1.76903L9.15191 2.81247C9.05066 2.81247 8.94941 2.81247 8.84816 2.81247L7.53753 1.76552C7.46872 1.71051 7.38795 1.67244 7.30172 1.65436C7.2155 1.63629 7.12624 1.63872 7.04113 1.66146C6.39478 1.83374 5.77413 2.09098 5.19542 2.42646C5.11971 2.47042 5.0553 2.53145 5.00733 2.60469C4.95936 2.67793 4.92914 2.76136 4.91909 2.84833L4.73347 4.51896C4.66034 4.5888 4.59003 4.65911 4.52253 4.72989L2.8505 4.92185C2.76346 4.93197 2.67999 4.96229 2.60675 5.01039C2.5335 5.05849 2.47251 5.12303 2.42863 5.19888C2.09348 5.77766 1.83648 6.3983 1.66433 7.04458C1.64169 7.12975 1.63937 7.21904 1.65757 7.30527C1.67577 7.39149 1.71397 7.47223 1.76909 7.54099L2.81253 8.8481C2.81253 8.94935 2.81253 9.0506 2.81253 9.15185L1.76558 10.4625C1.71057 10.5313 1.6725 10.6121 1.65442 10.6983C1.63635 10.7845 1.63878 10.8738 1.66152 10.9589C1.83349 11.6053 2.09075 12.226 2.42652 12.8046C2.47048 12.8803 2.53151 12.9447 2.60475 12.9927C2.67799 13.0406 2.76142 13.0709 2.84839 13.0809L4.5162 13.2665C4.58605 13.3397 4.65636 13.41 4.72714 13.4775L4.92191 15.1495C4.93203 15.2365 4.96235 15.32 5.01045 15.3933C5.05855 15.4665 5.12309 15.5275 5.19894 15.5714C5.77773 15.9065 6.39836 16.1635 7.04464 16.3357C7.12981 16.3583 7.2191 16.3606 7.30533 16.3424C7.39155 16.3242 7.4723 16.286 7.54105 16.2309L8.84816 15.1875C8.94941 15.1903 9.05066 15.1903 9.15191 15.1875L10.4625 16.2365C10.5313 16.2915 10.6121 16.3296 10.6983 16.3477C10.7846 16.3658 10.8738 16.3633 10.9589 16.3406C11.6054 16.1686 12.2261 15.9114 12.8046 15.5756C12.8804 15.5316 12.9448 15.4706 12.9927 15.3974C13.0407 15.3241 13.0709 15.2407 13.081 15.1537L13.2666 13.4859C13.3397 13.4165 13.41 13.3462 13.4775 13.275L15.1496 13.0781C15.2366 13.068 15.3201 13.0377 15.3933 12.9896C15.4666 12.9415 15.5276 12.8769 15.5714 12.8011C15.9066 12.2223 16.1636 11.6016 16.3357 10.9554C16.3584 10.8702 16.3607 10.7809 16.3425 10.6947C16.3243 10.6085 16.2861 10.5277 16.231 10.459L15.1875 9.15185ZM14.0555 8.69482C14.0675 8.89808 14.0675 9.10187 14.0555 9.30513C14.0471 9.44429 14.0907 9.5816 14.1778 9.69044L15.1756 10.9371C15.0611 11.3009 14.9145 11.6539 14.7375 11.9918L13.1485 12.1718C13.0101 12.1871 12.8823 12.2533 12.7899 12.3574C12.6545 12.5096 12.5104 12.6538 12.3582 12.7891C12.254 12.8815 12.1879 13.0093 12.1725 13.1477L11.996 14.7354C11.6582 14.9124 11.3052 15.059 10.9414 15.1734L9.69402 14.1757C9.5942 14.0959 9.47021 14.0525 9.34245 14.0526H9.3087C9.10544 14.0646 8.90165 14.0646 8.69839 14.0526C8.55923 14.0443 8.42192 14.0879 8.31308 14.175L7.06292 15.1734C6.69908 15.0589 6.34613 14.9123 6.00823 14.7354L5.82824 13.1484C5.81287 13.01 5.74673 12.8823 5.64261 12.7898C5.49039 12.6545 5.34624 12.5103 5.21089 12.3581C5.11845 12.254 4.99068 12.1878 4.8523 12.1725L3.26464 11.9953C3.08759 11.6574 2.94099 11.3045 2.82659 10.9406L3.82433 9.69325C3.91145 9.58441 3.95505 9.4471 3.94667 9.30794C3.93472 9.10468 3.93472 8.90089 3.94667 8.69763C3.95505 8.55847 3.91145 8.42115 3.82433 8.31231L2.82659 7.06286C2.94108 6.69902 3.08767 6.34607 3.26464 6.00817L4.85159 5.82817C4.98998 5.81281 5.11775 5.74667 5.21019 5.64255C5.34553 5.49033 5.48969 5.34618 5.64191 5.21083C5.74645 5.11833 5.81286 4.99027 5.82824 4.85153L6.00472 3.26458C6.34257 3.08753 6.69553 2.94093 7.05941 2.82653L8.30675 3.82427C8.41559 3.91139 8.5529 3.95499 8.69206 3.94661C8.89533 3.93466 9.09911 3.93466 9.30238 3.94661C9.44154 3.95499 9.57885 3.91139 9.68769 3.82427L10.9371 2.82653C11.301 2.94102 11.6539 3.08761 11.9918 3.26458L12.1718 4.85153C12.1872 4.98992 12.2533 5.11769 12.3575 5.21013C12.5097 5.34547 12.6538 5.48963 12.7892 5.64185C12.8816 5.74597 13.0094 5.81211 13.1478 5.82747L14.7354 6.00396C14.9125 6.34181 15.0591 6.69477 15.1735 7.05864L14.1757 8.30599C14.0878 8.41574 14.0441 8.55447 14.0534 8.69482H14.0555Z" fill="#11112F"/>
</svg>
