<svg width="18" height="18" viewBox="0 0 18 18" fill="none" xmlns="http://www.w3.org/2000/svg">
<path d="M11.852 16.023L6.22696 10.398C6.17466 10.3457 6.13317 10.2837 6.10487 10.2154C6.07656 10.1471 6.06199 10.0739 6.06199 10C6.06199 9.92609 6.07656 9.85289 6.10487 9.7846C6.13317 9.71632 6.17466 9.65428 6.22696 9.60204L11.852 3.97704C11.9575 3.87149 12.1007 3.81219 12.2499 3.81219C12.3992 3.81219 12.5424 3.87149 12.6479 3.97704C12.7534 4.08259 12.8127 4.22574 12.8127 4.37501C12.8127 4.52427 12.7534 4.66743 12.6479 4.77298L7.42017 10L12.6479 15.227C12.7002 15.2793 12.7416 15.3413 12.7699 15.4096C12.7982 15.4779 12.8127 15.5511 12.8127 15.625C12.8127 15.6989 12.7982 15.7721 12.7699 15.8404C12.7416 15.9087 12.7002 15.9707 12.6479 16.023C12.5956 16.0752 12.5336 16.1167 12.4653 16.145C12.397 16.1733 12.3238 16.1878 12.2499 16.1878C12.176 16.1878 12.1028 16.1733 12.0346 16.145C11.9663 16.1167 11.9042 16.0752 11.852 16.023Z" fill="#11112F"/>
</svg>
