<svg width="18" height="18" viewBox="0 0 18 18" fill="none" xmlns="http://www.w3.org/2000/svg">
<path d="M10.9688 9C10.9688 9.38938 10.8533 9.77002 10.637 10.0938C10.4206 10.4175 10.1132 10.6699 9.75341 10.8189C9.39367 10.9679 8.99782 11.0069 8.61592 10.9309C8.23402 10.855 7.88322 10.6675 7.60788 10.3921C7.33255 10.1168 7.14504 9.76598 7.06908 9.38408C6.99312 9.00218 7.0321 8.60634 7.18111 8.24659C7.33012 7.88685 7.58246 7.57937 7.90622 7.36305C8.22998 7.14672 8.61062 7.03125 9 7.03125C9.52215 7.03125 10.0229 7.23867 10.3921 7.60788C10.7613 7.9771 10.9688 8.47786 10.9688 9ZM9 5.34375C9.38938 5.34375 9.77002 5.22829 10.0938 5.01196C10.4175 4.79563 10.6699 4.48815 10.8189 4.12841C10.9679 3.76867 11.0069 3.37282 10.9309 2.99092C10.855 2.60902 10.6675 2.25822 10.3921 1.98288C10.1168 1.70755 9.76599 1.52004 9.38408 1.44408C9.00218 1.36812 8.60634 1.4071 8.24659 1.55611C7.88685 1.70512 7.57937 1.95746 7.36305 2.28122C7.14672 2.60498 7.03125 2.98562 7.03125 3.375C7.03125 3.89715 7.23867 4.3979 7.60788 4.76712C7.9771 5.13633 8.47786 5.34375 9 5.34375ZM9 12.6563C8.61062 12.6563 8.22998 12.7717 7.90622 12.988C7.58246 13.2044 7.33012 13.5119 7.18111 13.8716C7.0321 14.2313 6.99312 14.6272 7.06908 15.0091C7.14504 15.391 7.33255 15.7418 7.60788 16.0171C7.88322 16.2925 8.23402 16.48 8.61592 16.5559C8.99782 16.6319 9.39367 16.5929 9.75341 16.4439C10.1132 16.2949 10.4206 16.0425 10.637 15.7188C10.8533 15.395 10.9688 15.0144 10.9688 14.625C10.9688 14.1029 10.7613 13.6021 10.3921 13.2329C10.0229 12.8637 9.52215 12.6563 9 12.6563Z" fill="#11112F"/>
</svg>
