<svg width="24" height="24" viewBox="0 0 24 24" fill="none" xmlns="http://www.w3.org/2000/svg">
<path d="M5.5 13.3545C5.5 16.2455 7.03309 17.3069 11.4759 19.8416C11.6793 19.9525 11.8748 20 12 20C12.1252 20 12.3285 19.9525 12.5241 19.8416C16.9747 17.3149 18.5 16.2455 18.5 13.3545V7.29505C18.5 6.46337 18.148 6.20198 17.4832 5.91683C16.5602 5.52871 13.58 4.44356 12.657 4.11881C12.4458 4.04752 12.219 4 12 4C11.781 4 11.5542 4.06337 11.3508 4.11881C10.4278 4.38812 7.43983 5.53663 6.51685 5.91683C5.85981 6.19406 5.5 6.46337 5.5 7.29505V13.3545ZM12.1643 18.5347V5.29901C12.2034 5.30693 12.2503 5.32277 12.3129 5.34653C13.494 5.82178 15.7858 6.66139 16.9982 7.08119C17.2094 7.1604 17.2563 7.27129 17.2563 7.54059V13.0614C17.2563 15.5089 16.0987 16.1505 12.485 18.3762C12.3676 18.4554 12.2581 18.5109 12.1643 18.5347Z" fill="#666666"/>
</svg>
