<svg width="24" height="24" viewBox="0 0 24 24" fill="none" xmlns="http://www.w3.org/2000/svg">
<path d="M12 19C12.4158 19 12.7636 18.6758 12.7636 18.2767V12.7482H18.2448C18.6521 12.7482 19 12.4074 19 12C19 11.5926 18.6521 11.2601 18.2448 11.2601H12.7636V5.72328C12.7636 5.32423 12.4158 5 12 5C11.5842 5 11.2448 5.32423 11.2448 5.72328V11.2601H5.75515C5.34788 11.2601 5 11.5926 5 12C5 12.4074 5.34788 12.7482 5.75515 12.7482H11.2448V18.2767C11.2448 18.6758 11.5842 19 12 19Z" fill="#757575"/>
</svg>
