<svg width="24" height="24" viewBox="0 0 24 24" fill="none" xmlns="http://www.w3.org/2000/svg">
<path d="M6.37429 16.464H7.6673V17.6325C7.6673 19.2057 8.45369 20 10.0416 20H17.6333C19.206 20 20 19.2057 20 17.6325V9.90358C20 8.33031 19.206 7.53604 17.6333 7.53604H16.3327V6.36754C16.3327 4.79427 15.5388 4 13.966 4H6.37429C4.78639 4 4 4.79427 4 6.36754V14.0964C4 15.6697 4.78639 16.464 6.37429 16.464ZM6.38941 15.2344C5.63327 15.2344 5.21739 14.822 5.21739 14.0277V6.43628C5.21739 5.642 5.63327 5.22959 6.38941 5.22959H13.9433C14.6919 5.22959 15.1153 5.642 15.1153 6.43628V7.53604H10.0416C8.45369 7.53604 7.6673 8.32267 7.6673 9.90358V15.2344H6.38941ZM10.0567 18.7704C9.30813 18.7704 8.88469 18.358 8.88469 17.5637V9.97231C8.88469 9.17804 9.30813 8.76563 10.0567 8.76563H17.6106C18.3592 8.76563 18.7826 9.17804 18.7826 9.97231V17.5637C18.7826 18.358 18.3592 18.7704 17.6106 18.7704H10.0567Z" fill="#757575"/>
</svg>
