<svg width="24" height="24" viewBox="0 0 24 24" fill="none" xmlns="http://www.w3.org/2000/svg">
<path d="M12 20C16.3765 20 20 16.3686 20 12C20 7.62353 16.3686 4 11.9922 4C7.62353 4 4 7.62353 4 12C4 16.3686 7.63137 20 12 20ZM12 18.6667C8.29804 18.6667 5.34118 15.702 5.34118 12C5.34118 8.29804 8.2902 5.33333 11.9922 5.33333C15.6941 5.33333 18.6588 8.29804 18.6667 12C18.6745 15.702 15.702 18.6667 12 18.6667ZM12 8.00784C11.6627 8.00784 11.4118 8.25098 11.4118 8.59608V12.5176L11.4745 14.1725L10.6902 13.2314L9.75686 12.2902C9.64706 12.1882 9.50588 12.1176 9.34118 12.1176C9.01961 12.1176 8.77647 12.3686 8.77647 12.6824C8.77647 12.8471 8.82353 12.9882 8.92549 13.0902L11.5451 15.702C11.702 15.8588 11.8353 15.9216 12 15.9216C12.1725 15.9216 12.3137 15.851 12.4627 15.702L15.0745 13.0902C15.1765 12.9882 15.2392 12.8471 15.2392 12.6824C15.2392 12.3686 14.9882 12.1176 14.6667 12.1176C14.4941 12.1176 14.3529 12.1804 14.251 12.2902L13.3255 13.2314L12.5255 14.1804L12.5882 12.5176V8.59608C12.5882 8.25098 12.3451 8.00784 12 8.00784Z" fill="#757575"/>
</svg>
